HIERARCHY
ROOT hip
{
  OFFSET 0 0 0
  CHANNELS 6 Xposition Yposition Zposition Zrotation Yrotation Xrotation
  JOINT abdomen
  {
    OFFSET 0 20.6881 -0.73152
    CHANNELS 3 Zrotation Xrotation Yrotation
    JOINT chest
    {
      OFFSET 0 11.7043 -0.48768
      CHANNELS 3 Zrotation Xrotation Yrotation
      JOINT neck
      {
        OFFSET 0 22.1894 -2.19456
        CHANNELS 3 Zrotation Xrotation Yrotation
        JOINT head
        {
          OFFSET -0.24384 7.07133 1.2192
          CHANNELS 3 Zrotation Xrotation Yrotation
          JOINT leftEye
          {
            OFFSET 4.14528 8.04674 8.04672
            CHANNELS 3 Zrotation Xrotation Yrotation
            End Site
            {
              OFFSET 1 0 0
            }
          }
          JOINT rightEye
          {
            OFFSET -3.6576 8.04674 8.04672
            CHANNELS 3 Zrotation Xrotation Yrotation
            End Site
            {
              OFFSET 1 0 0
            }
          }
        }
      }
      JOINT rCollar
      {
        OFFSET -2.68224 19.2634 -4.8768
        CHANNELS 3 Zrotation Xrotation Yrotation
        JOINT rShldr
        {
          OFFSET -8.77824 -1.95073 1.46304
          CHANNELS 3 Zrotation Xrotation Yrotation
          JOINT rForeArm
          {
            OFFSET -28.1742 -1.7115 0.48768
            CHANNELS 3 Zrotation Xrotation Yrotation
            JOINT rHand
            {
              OFFSET -22.5879 0.773209 7.07136
              CHANNELS 3 Zrotation Xrotation Yrotation
              JOINT rThumb1
              {
                OFFSET -1.2192 -0.487915 3.41376
                CHANNELS 3 Zrotation Xrotation Yrotation
                JOINT rThumb2
                {
                  OFFSET -3.37035 -0.52449 3.41376
                  CHANNELS 3 Zrotation Xrotation Yrotation
                  End Site
                  {
                    OFFSET -1.78271 -1.18214 1.43049
                  }
                }
              }
              JOINT rIndex1
              {
                OFFSET -7.75947 0.938293 5.60832
                CHANNELS 3 Zrotation Xrotation Yrotation
                JOINT rIndex2
                {
                  OFFSET -2.54057 -0.884171 1.56538
                  CHANNELS 3 Zrotation Xrotation Yrotation
                  End Site
                  {
                    OFFSET -1.62519 -0.234802 1.16502
                  }
                }
              }
              JOINT rMid1
              {
                OFFSET -8.24714 1.18213 3.41376
                CHANNELS 3 Zrotation Xrotation Yrotation
                JOINT rMid2
                {
                  OFFSET -3.10165 -0.590103 1.0647
                  CHANNELS 3 Zrotation Xrotation Yrotation
                  End Site
                  {
                    OFFSET -2.48547 -0.328903 0.83742
                  }
                }
              }
              JOINT rRing1
              {
                OFFSET -8.82822 0.546677 1.51678
                CHANNELS 3 Zrotation Xrotation Yrotation
                JOINT rRing2
                {
                  OFFSET -2.60934 -0.819778 -0.0198488
                  CHANNELS 3 Zrotation Xrotation Yrotation
                  End Site
                  {
                    OFFSET -2.33842 -0.294052 0.168128
                  }
                }
              }
              JOINT rPinky1
              {
                OFFSET -8.27202 -0.0477905 -0.4584
                CHANNELS 3 Zrotation Xrotation Yrotation
                JOINT rPinky2
                {
                  OFFSET -1.82734 -0.647385 -0.700984
                  CHANNELS 3 Zrotation Xrotation Yrotation
                  End Site
                  {
                    OFFSET -1.69225 -0.51767 -0.607171
                  }
                }
              }
            }
          }
        }
      }
      JOINT lCollar
      {
        OFFSET 2.68224 19.2634 -4.8768
        CHANNELS 3 Zrotation Xrotation Yrotation
        JOINT lShldr
        {
          OFFSET 8.77824 -1.95073 1.46304
          CHANNELS 3 Zrotation Xrotation Yrotation
          JOINT lForeArm
          {
            OFFSET 28.1742 -1.7115 0.48768
            CHANNELS 3 Zrotation Xrotation Yrotation
            JOINT lHand
            {
              OFFSET 22.5879 0.773209 7.07136
              CHANNELS 3 Zrotation Xrotation Yrotation
              JOINT lThumb1
              {
                OFFSET 1.2192 -0.487915 3.41376
                CHANNELS 3 Zrotation Xrotation Yrotation
                JOINT lThumb2
                {
                  OFFSET 3.37035 -0.52449 3.41376
                  CHANNELS 3 Zrotation Xrotation Yrotation
                  End Site
                  {
                    OFFSET 1.78271 -1.18214 1.43049
                  }
                }
              }
              JOINT lIndex1
              {
                OFFSET 7.75947 0.938293 5.60832
                CHANNELS 3 Zrotation Xrotation Yrotation
                JOINT lIndex2
                {
                  OFFSET 2.54057 -0.884171 1.56538
                  CHANNELS 3 Zrotation Xrotation Yrotation
                  End Site
                  {
                    OFFSET 1.62519 -0.234802 1.16502
                  }
                }
              }
              JOINT lMid1
              {
                OFFSET 8.24714 1.18213 3.41376
                CHANNELS 3 Zrotation Xrotation Yrotation
                JOINT lMid2
                {
                  OFFSET 3.10165 -0.590103 1.0647
                  CHANNELS 3 Zrotation Xrotation Yrotation
                  End Site
                  {
                    OFFSET 2.48547 -0.328903 0.83742
                  }
                }
              }
              JOINT lRing1
              {
                OFFSET 8.82822 0.546677 1.51678
                CHANNELS 3 Zrotation Xrotation Yrotation
                JOINT lRing2
                {
                  OFFSET 2.60934 -0.819778 -0.0198488
                  CHANNELS 3 Zrotation Xrotation Yrotation
                  End Site
                  {
                    OFFSET 2.33842 -0.294052 0.168128
                  }
                }
              }
              JOINT lPinky1
              {
                OFFSET 8.27202 -0.0477905 -0.4584
                CHANNELS 3 Zrotation Xrotation Yrotation
                JOINT lPinky2
                {
                  OFFSET 1.82734 -0.647385 -0.700984
                  CHANNELS 3 Zrotation Xrotation Yrotation
                  End Site
                  {
                    OFFSET 1.69225 -0.51767 -0.607171
                  }
                }
              }
            }
          }
        }
      }
    }
  }
  JOINT rButtock
  {
    OFFSET -8.77824 4.35084 1.2192
    CHANNELS 3 Zrotation Xrotation Yrotation
    JOINT rThigh
    {
      OFFSET 0 -1.70687 -2.19456
      CHANNELS 3 Zrotation Xrotation Yrotation
      JOINT rShin
      {
        OFFSET 0 -36.8199 0.73152
        CHANNELS 3 Zrotation Xrotation Yrotation
        JOINT rFoot
        {
          OFFSET 0.73152 -45.1104 -5.12064
          CHANNELS 3 Zrotation Xrotation Yrotation
          End Site
          {
            OFFSET -1.1221 -3.69964 12.103
          }
        }
      }
    }
  }
  JOINT lButtock
  {
    OFFSET 8.77824 4.35084 1.2192
    CHANNELS 3 Zrotation Xrotation Yrotation
    JOINT lThigh
    {
      OFFSET 0 -1.70687 -2.19456
      CHANNELS 3 Zrotation Xrotation Yrotation
      JOINT lShin
      {
        OFFSET 0 -36.8199 0.73152
        CHANNELS 3 Zrotation Xrotation Yrotation
        JOINT lFoot
        {
          OFFSET -0.73152 -45.1104 -5.12064
          CHANNELS 3 Zrotation Xrotation Yrotation
          End Site
          {
            OFFSET 1.1221 -3.69964 12.103
          }
        }
      }
    }
  }
}
MOTION
Frames:	11
Frame Time:	0.00833333
-145.01862 82.8343 32.46671 125.84829 87.00402 132.74997 -1.8216897 2.5109534 -1.5107328 -3.5981092 -11.447415 -0.73102516 -2.8818288 13.143906 9.249741 12.130106 -20.906286 20.879604 -0.0 0.0 -0.0 -0.0 0.0 -0.0 -0.0 0.0 -0.0 79.00289 41.3608 -11.1907 -28.4088 -36.66469 78.1618 -0.005251127 2.0684247 0.2908823 -0.0 -0.0 -0.0 -0.0 -0.0 -0.0 -0.0 -0.0 -0.0 7.7309012 5.4749126 0.41732216 -0.0 -0.0 -0.0 2.9055667 0.9650755 0.103008196 -0.0 -0.0 -0.0 10.278597 0.731881 0.026273511 -0.0 -0.0 -0.0 2.2216635 -0.73345095 -0.208321 -0.0 0.0 -0.0 -67.312 -13.075896 10.374703 22.824295 -17.050997 -46.060196 2.176018 38.147285 -6.330513 -0.0 0.0 -0.0 -0.0 0.0 -0.0 -0.0 0.0 -0.0 -7.7309012 5.4749126 -0.41732216 -0.0 0.0 -0.0 -2.9055667 0.9650755 -0.103008196 -0.0 0.0 -0.0 -10.278597 0.731881 -0.026273511 -0.0 0.0 -0.0 -2.2216635 -0.73345095 0.208321 -0.0 0.0 -0.0 -2.1207728 -17.030508 -1.421644 -0.51619154 48.532093 1.0860649 -0.89731294 -10.9494095 -1.1302801 0.0 0.0 0.0 1.6242342 -27.335695 25.055304 0.29038695 40.06358 -1.0046675 8.753735 -22.841797 17.049692
-148.94524 83.2855 35.37461 -13.694951 81.62899 -4.4401326 3.124914 0.5440779 1.1171023 -2.7740607 -12.041006 0.1439953 -1.9472982 12.396714 11.980296 12.064287 -20.390203 26.199507 -0.0 0.0 -0.0 -0.0 0.0 -0.0 -0.0 0.0 -0.0 73.802895 39.78021 -6.4466567 -28.403696 -36.911 78.5507 -0.004299313 1.8710004 0.26329246 -0.0 -0.0 -0.0 -0.0 -0.0 -0.0 -0.0 -0.0 -0.0 7.7309012 5.4749126 0.41732216 -0.0 -0.0 -0.0 2.9055667 0.9650755 0.103008196 -0.0 -0.0 -0.0 10.278597 0.731881 0.026273511 -0.0 -0.0 -0.0 2.2216635 -0.73345095 -0.208321 -0.0 0.0 -0.0 -65.69399 -13.612306 10.3337 22.45051 -16.419477 -45.190098 1.8193924 35.30713 -5.7126455 0.0 0.0 0.0 0.0 0.0 0.0 0.0 0.0 0.0 -7.7309012 5.4749126 -0.41732216 0.0 0.0 0.0 -2.9055667 0.9650755 -0.103008196 0.0 0.0 0.0 -10.278597 0.731881 -0.026273511 0.0 0.0 0.0 -2.2216635 -0.73345095 0.208321 -0.0 0.0 -0.0 2.5556304 -13.582186 -1.767032 -0.135857 34.52331 0.8454604 0.9822456 -16.598598 4.9134536 0.0 0.0 0.0 12.3375025 -33.5058 29.586405 0.36172533 44.578503 -1.2947642 9.6824875 -20.3556 20.078499
-152.7983 82.8598 36.94121 -22.39781 80.109955 -11.190108 4.4623876 0.48950428 3.11468 -1.0832193 -12.138702 0.8977074 -1.3938557 11.692431 12.369076 11.242295 -21.9838 26.983402 -0.0 0.0 -0.0 -0.0 0.0 -0.0 -0.0 -0.0 -0.0 74.3328 36.575302 -4.9586844 -28.416002 -36.335094 77.6216 -0.006512662 2.3027287 0.3240476 -0.0 -0.0 -0.0 -0.0 -0.0 -0.0 -0.0 -0.0 -0.0 7.7309012 5.4749126 0.41732216 -0.0 -0.0 -0.0 2.9055667 0.9650755 0.103008196 -0.0 -0.0 -0.0 10.278597 0.731881 0.026273511 -0.0 -0.0 -0.0 2.2216635 -0.73345095 -0.208321 -0.0 -0.0 -0.0 -68.445595 -7.339443 9.757523 24.575487 -20.23461 -51.7778 1.4916768 32.58972 -5.1495647 0.0 0.0 0.0 0.0 0.0 0.0 0.0 0.0 0.0 -7.7309012 5.4749126 -0.41732216 0.0 0.0 0.0 -2.9055667 0.9650755 -0.103008196 0.0 0.0 0.0 -10.278597 0.731881 -0.026273511 0.0 0.0 0.0 -2.2216635 -0.73345095 0.208321 -0.0 0.0 -0.0 4.2098856 -13.95 -8.236783 0.0011920296 29.720102 0.8352051 2.9611306 -20.893894 9.220731 0.0 0.0 0.0 18.292805 -39.5006 25.834703 0.59100735 51.15914 -1.351427 3.7068706 -17.493214 8.088179
-155.3094 81.7313 37.65351 -75.762856 82.61002 -65.57017 10.278989 3.4313633 3.4164994 -0.4866539 -12.663401 1.1533725 -2.4400468 11.003137 10.619589 8.923025 -22.856478 23.206802 -0.0 0.0 -0.0 -0.0 0.0 -0.0 0.0 0.0 -0.0 74.401505 34.070404 -2.267097 -28.385693 -34.014397 73.738785 -0.00019808044 0.40565938 0.05595396 -0.0 0.0 0.0 -0.0 0.0 0.0 -0.0 0.0 0.0 7.7309012 5.4749126 0.41732216 -0.0 0.0 0.0 2.9055667 0.9650755 0.103008196 -0.0 0.0 0.0 10.278597 0.731881 0.026273511 -0.0 0.0 0.0 2.2216635 -0.73345095 -0.208321 0.0 0.0 -0.0 -75.504295 1.5389975 11.378594 27.587198 -28.562199 -64.573395 1.5137405 32.495865 -5.1409063 0.0 0.0 0.0 0.0 0.0 0.0 0.0 0.0 0.0 -7.7309012 5.4749126 -0.41732216 0.0 0.0 0.0 -2.9055667 0.9650755 -0.103008196 0.0 0.0 0.0 -10.278597 0.731881 -0.026273511 0.0 0.0 0.0 -2.2216635 -0.73345095 0.208321 -0.0 0.0 -0.0 9.010233 -13.957315 -11.622097 0.042800963 30.0245 0.9109891 1.6489587 -24.509602 5.143122 0.0 0.0 0.0 18.897387 -43.951603 14.803766 0.9969531 59.291317 -1.6046757 -0.8217138 -16.430788 -3.0667634
-156.8508 80.740204 36.78081 -129.83195 79.796196 -121.21058 13.58201 4.2460337 6.1445193 0.24660917 -11.7914715 2.1154819 -4.8546653 12.824611 6.2304773 8.055322 -25.477201 14.506313 -0.0 0.0 -0.0 -0.0 0.0 -0.0 -0.0 -0.0 -0.0 73.0767 29.355099 1.1688061 -27.996609 -30.571095 68.158104 -0.0030186232 -1.5697222 -0.22034897 -0.0 0.0 -0.0 -0.0 0.0 -0.0 -0.0 0.0 -0.0 7.7309012 5.4749126 0.41732216 -0.0 0.0 -0.0 2.9055667 0.9650755 0.103008196 -0.0 0.0 -0.0 10.278597 0.731881 0.026273511 -0.0 0.0 -0.0 2.2216635 -0.73345095 -0.208321 -0.0 -0.0 -0.0 -83.53419 10.712402 13.631185 28.497702 -36.615704 -77.68261 1.6804746 34.281773 -5.492334 -0.0 -0.0 -0.0 -0.0 -0.0 -0.0 -0.0 -0.0 -0.0 -7.7309012 5.4749126 -0.41732216 -0.0 -0.0 -0.0 -2.9055667 0.9650755 -0.103008196 -0.0 -0.0 -0.0 -10.278597 0.731881 -0.026273511 -0.0 -0.0 -0.0 -2.2216635 -0.73345095 0.208321 -0.0 0.0 -0.0 10.815307 -15.140707 -13.032395 -0.02651511 32.916805 0.9085128 -1.0950031 -26.056505 -1.0428363 0.0 0.0 0.0 11.266096 -42.91729 2.3198924 1.3026226 63.269413 -1.7977126 -3.0393965 -12.428602 -10.369203
-157.51831 81.3074 34.19651 -162.7068 74.80799 -155.85988 9.987894 4.550206 11.768497 0.62693304 -11.165896 3.7018433 -6.3209143 17.027788 -0.58860016 7.235394 -29.000607 0.6269752 -0.0 0.0 -0.0 -0.0 0.0 -0.0 -0.0 -0.0 -0.0 71.036194 18.140795 3.1082263 -27.116404 -26.727392 62.054504 -0.026053054 -3.1311765 -0.44122913 -0.0 0.0 -0.0 -0.0 0.0 -0.0 -0.0 0.0 -0.0 7.7309012 5.4749126 0.41732216 -0.0 0.0 -0.0 2.9055667 0.9650755 0.103008196 -0.0 0.0 -0.0 10.278597 0.731881 0.026273511 -0.0 0.0 -0.0 2.2216635 -0.73345095 -0.208321 -0.0 -0.0 -0.0 -88.49259 23.798908 15.522989 27.842596 -41.118298 -86.022095 1.6679997 34.033295 -5.446398 -0.0 0.0 -0.0 -0.0 0.0 -0.0 -0.0 0.0 -0.0 -7.7309012 5.4749126 -0.41732216 -0.0 0.0 -0.0 -2.9055667 0.9650755 -0.103008196 -0.0 0.0 -0.0 -10.278597 0.731881 -0.026273511 -0.0 0.0 -0.0 -2.2216635 -0.73345095 0.208321 -0.0 0.0 -0.0 5.1141443 -20.1378 -13.898999 -0.3256387 43.83599 1.0521599 -3.6260252 -19.805285 -7.489038 0.0 0.0 0.0 -0.6198213 -35.732494 -6.638466 0.81269014 55.158703 -1.2318445 -2.3291154 -17.142899 -6.826223
-159.0047 81.1527 31.17261 176.69804 66.68502 -178.47997 3.7141585 7.318205 13.696989 0.04618923 -11.386789 4.028183 -8.736239 19.196497 -6.2388425 9.958218 -28.457596 -10.133891 -0.0 0.0 -0.0 -0.0 0.0 -0.0 -0.0 0.0 -0.0 67.83788 4.296165 6.844972 -25.621183 -22.500607 55.15689 -0.09443041 -8.731662 -1.2368276 -0.0 -0.0 -0.0 -0.0 -0.0 -0.0 -0.0 -0.0 -0.0 7.7309012 5.4749126 0.41732216 -0.0 -0.0 -0.0 2.9055667 0.9650755 0.103008196 -0.0 -0.0 -0.0 10.278597 0.731881 0.026273511 -0.0 -0.0 -0.0 2.2216635 -0.73345095 -0.208321 -0.0 0.0 -0.0 -89.873795 34.83169 16.403307 27.148602 -43.610397 -90.67069 1.6780362 34.1203 -5.4643164 -0.0 -0.0 -0.0 -0.0 -0.0 -0.0 -0.0 -0.0 -0.0 -7.7309012 5.4749126 -0.41732216 -0.0 -0.0 -0.0 -2.9055667 0.9650755 -0.103008196 -0.0 -0.0 -0.0 -10.278597 0.731881 -0.026273511 -0.0 -0.0 -0.0 -2.2216635 -0.73345095 0.208321 -0.0 0.0 -0.0 -10.083496 -30.696 -22.337097 -1.2566721 62.700005 1.7669406 -2.214395 -7.276517 -7.3635917 0.0 0.0 0.0 -10.563592 -28.570404 -11.033287 0.5219626 47.0753 -0.8129581 -2.9148483 -18.273407 -8.466907
-160.15341 82.070206 29.258911 171.2813 55.663033 174.9106 -0.39432475 9.677828 12.981979 -1.3547661 -10.894692 3.556477 -10.306505 20.900702 -10.860888 13.078306 -27.385904 -18.702793 -0.0 0.0 -0.0 -0.0 0.0 -0.0 -0.0 -0.0 -0.0 64.2743 -8.547886 9.926948 -23.9146 -18.947895 49.291798 -0.26972252 -14.626151 -2.1014764 0.0 0.0 0.0 0.0 0.0 0.0 0.0 0.0 0.0 7.7309012 5.4749126 0.41732216 0.0 0.0 0.0 2.9055667 0.9650755 0.103008196 0.0 0.0 0.0 10.278597 0.731881 0.026273511 0.0 0.0 0.0 2.2216635 -0.73345095 -0.208321 -0.0 -0.0 -0.0 -85.9126 45.365 11.0258 26.997194 -44.012897 -91.482895 1.7641324 34.715385 -5.5930057 -0.0 0.0 -0.0 -0.0 0.0 -0.0 -0.0 0.0 -0.0 -7.7309012 5.4749126 -0.41732216 -0.0 0.0 -0.0 -2.9055667 0.9650755 -0.103008196 -0.0 0.0 -0.0 -10.278597 0.731881 -0.026273511 -0.0 0.0 -0.0 -2.2216635 -0.73345095 0.208321 -0.0 0.0 -0.0 -24.748188 -35.7678 -31.014095 -1.6521002 66.974915 2.1014593 -1.943197 -5.090874 -7.129099 0.0 0.0 0.0 -15.411592 -23.294304 -10.687587 0.3590294 40.8331 -0.6195943 -4.928338 -15.0300045 -16.069902
-160.4073 82.6028 27.97061 167.89699 46.981987 171.15005 -4.125792 10.501292 10.740705 -1.3393556 -9.951388 2.841737 -9.085217 22.502386 -14.179304 12.011999 -26.927092 -25.385393 -0.0 0.0 -0.0 -0.0 0.0 -0.0 -0.0 0.0 -0.0 61.8582 -12.5373 10.376084 -23.518896 -18.221 48.145996 -0.30429986 -15.506007 -2.234798 -0.0 0.0 -0.0 -0.0 0.0 -0.0 -0.0 0.0 -0.0 7.7309012 5.4749126 0.41732216 -0.0 0.0 -0.0 2.9055667 0.9650755 0.103008196 -0.0 0.0 -0.0 10.278597 0.731881 0.026273511 -0.0 0.0 -0.0 2.2216635 -0.73345095 -0.208321 -0.0 0.0 -0.0 -83.540985 52.913197 5.0510573 27.110489 -43.701004 -90.86769 1.8403916 35.34497 -5.725869 -0.0 -0.0 -0.0 -0.0 -0.0 -0.0 -0.0 -0.0 -0.0 -7.7309012 5.4749126 -0.41732216 -0.0 -0.0 -0.0 -2.9055667 0.9650755 -0.103008196 -0.0 -0.0 -0.0 -10.278597 0.731881 -0.026273511 -0.0 -0.0 -0.0 -2.2216635 -0.73345095 0.208321 -0.0 0.0 -0.0 -29.153097 -36.369186 -27.481602 -0.88613844 57.012615 1.3898809 -3.7356641 -8.9890585 -12.607403 0.0 0.0 0.0 -17.302494 -18.7668 -8.8575325 0.2574989 35.702698 -0.5257584 -6.2570825 -11.7898 -23.580896
-158.9733 83.531105 27.27311 167.278 43.64801 169.73 -6.5387053 10.355589 7.2706504 -0.68011266 -9.017476 1.8961898 -7.754615 23.774199 -14.573408 12.145996 -25.606705 -25.942698 -0.0 0.0 -0.0 -0.0 0.0 -0.0 0.0 0.0 -0.0 63.6732 -8.641639 11.862915 -23.870804 -18.856388 49.214005 -0.26982224 -14.627393 -2.1020722 0.0 0.0 -0.0 0.0 0.0 -0.0 0.0 0.0 -0.0 7.7309012 5.4749126 0.41732216 0.0 0.0 -0.0 2.9055667 0.9650755 0.103008196 0.0 0.0 -0.0 10.278597 0.731881 0.026273511 0.0 0.0 -0.0 2.2216635 -0.73345095 -0.208321 0.0 0.0 -0.0 -85.9454 56.866905 3.339811 27.460398 -42.599598 -88.7667 2.0359094 37.001087 -6.079429 0.0 0.0 0.0 0.0 0.0 0.0 0.0 0.0 0.0 -7.7309012 5.4749126 -0.41732216 0.0 0.0 0.0 -2.9055667 0.9650755 -0.103008196 0.0 0.0 0.0 -10.278597 0.731881 -0.026273511 0.0 0.0 0.0 -2.2216635 -0.73345095 0.208321 -0.0 0.0 -0.0 -27.204098 -34.454887 -21.508907 -0.49726138 46.952904 0.88925874 -3.5488627 -5.738398 -15.797989 0.0 0.0 0.0 -17.778595 -14.065903 -10.898202 0.20564899 31.830383 -0.44649827 -5.9415903 -10.726117 -24.024998
-155.92111 82.809906 27.04371 166.39998 48.29399 166.75009 -8.3711405 11.371889 6.3016057 -0.5245812 -9.024638 1.5863519 -6.617558 22.759594 -12.167392 11.725193 -23.0457 -21.226498 -0.0 0.0 -0.0 -0.0 0.0 -0.0 0.0 0.0 -0.0 68.27679 0.030367447 12.601103 -24.586006 -20.233683 51.5369 -0.28234518 -14.953005 -2.151194 -0.0 0.0 -0.0 -0.0 0.0 -0.0 -0.0 0.0 -0.0 7.7309012 5.4749126 0.41732216 -0.0 0.0 -0.0 2.9055667 0.9650755 0.103008196 -0.0 0.0 -0.0 10.278597 0.731881 0.026273511 -0.0 0.0 -0.0 2.2216635 -0.73345095 -0.208321 0.0 0.0 -0.0 -89.423904 57.331894 5.464521 28.070087 -40.081497 -84.033394 2.2679477 38.668423 -6.457865 0.0 0.0 0.0 0.0 0.0 0.0 0.0 0.0 0.0 -7.7309012 5.4749126 -0.41732216 0.0 0.0 0.0 -2.9055667 0.9650755 -0.103008196 0.0 0.0 0.0 -10.278597 0.731881 -0.026273511 0.0 0.0 0.0 -2.2216635 -0.73345095 0.208321 -0.0 0.0 -0.0 -22.554396 -34.3352 -17.062288 -0.6430083 51.372303 1.0630256 -3.00063 -9.280451 -9.984929 0.0 0.0 0.0 -17.593401 -11.753902 -11.416911 0.2379894 34.394505 -0.51416427 -5.384415 -14.223097 -18.142096
